<svg width="18" height="15" viewBox="0 0 18 15" fill="none" xmlns="http://www.w3.org/2000/svg">
<path d="M15.2378 2.11583C14.0905 1.58941 12.8602 1.20158 11.5739 0.979447C11.5505 0.97516 11.5271 0.985874 11.515 1.0073C11.3568 1.28871 11.1815 1.65584 11.0588 1.94439C9.6753 1.73727 8.29889 1.73727 6.94374 1.94439C6.82099 1.64942 6.63936 1.28871 6.48043 1.0073C6.46836 0.986589 6.44496 0.975875 6.42154 0.979447C5.13593 1.20087 3.90567 1.5887 2.7577 2.11583C2.74776 2.12011 2.73924 2.12726 2.73359 2.13654C0.400044 5.62281 -0.239213 9.02339 0.0743851 12.3818C0.075804 12.3982 0.0850274 12.414 0.0977985 12.4239C1.63741 13.5546 3.12878 14.241 4.59246 14.696C4.61588 14.7031 4.6407 14.6946 4.65561 14.6753C5.00184 14.2024 5.31048 13.7039 5.57511 13.1796C5.59072 13.1489 5.57582 13.1125 5.5439 13.1003C5.05435 12.9146 4.5882 12.6882 4.1398 12.4311C4.10433 12.4104 4.10149 12.3597 4.13412 12.3354C4.22848 12.2647 4.32286 12.1911 4.41297 12.1168C4.42927 12.1032 4.45198 12.1004 4.47115 12.1089C7.41696 13.4539 10.6062 13.4539 13.5172 12.1089C13.5364 12.0997 13.5591 12.1025 13.5761 12.1161C13.6662 12.1904 13.7606 12.2647 13.8557 12.3354C13.8883 12.3597 13.8862 12.4104 13.8507 12.4311C13.4023 12.6932 12.9361 12.9146 12.4459 13.0996C12.414 13.1118 12.3998 13.1489 12.4154 13.1796C12.6857 13.7032 12.9943 14.2017 13.3342 14.6746C13.3484 14.6946 13.3739 14.7031 13.3973 14.696C14.8681 14.241 16.3595 13.5546 17.8991 12.4239C17.9126 12.414 17.9211 12.3989 17.9225 12.3825C18.2978 8.49982 17.2939 5.12712 15.2612 2.13725C15.2562 2.12726 15.2477 2.12011 15.2378 2.11583ZM6.01502 10.3369C5.12812 10.3369 4.39735 9.52265 4.39735 8.52269C4.39735 7.52272 5.11395 6.70849 6.01502 6.70849C6.92315 6.70849 7.64686 7.52987 7.63266 8.52269C7.63266 9.52265 6.91606 10.3369 6.01502 10.3369ZM11.9961 10.3369C11.1092 10.3369 10.3784 9.52265 10.3784 8.52269C10.3784 7.52272 11.095 6.70849 11.9961 6.70849C12.9042 6.70849 13.6279 7.52987 13.6137 8.52269C13.6137 9.52265 12.9042 10.3369 11.9961 10.3369Z" fill="white"/>
</svg>
