<svg width="18" height="18" viewBox="0 0 18 18" fill="none" xmlns="http://www.w3.org/2000/svg">
<path d="M10.1531 8.87078C10.1531 11.6988 7.88021 13.9914 5.07663 13.9914C2.27305 13.9914 0 11.6983 0 8.87078C0 6.04326 2.27287 3.75 5.07663 3.75C7.88038 3.75 10.1531 6.04274 10.1531 8.87078Z" fill="white"/>
<path d="M15.7221 8.87159C15.7221 11.5336 14.5857 13.6924 13.1838 13.6924C11.7819 13.6924 10.6455 11.5336 10.6455 8.87159C10.6455 6.20961 11.7818 4.05078 13.1837 4.05078C14.5855 4.05078 15.722 6.20892 15.722 8.87159" fill="white"/>
<path d="M18.0001 8.87142C18.0001 11.2559 17.6005 13.1901 17.1074 13.1901C16.6143 13.1901 16.2148 11.2564 16.2148 8.87142C16.2148 6.48642 16.6145 4.55273 17.1074 4.55273C17.6003 4.55273 18.0001 6.48624 18.0001 8.87142Z" fill="white"/>
</svg>
